<?xml version="1.0" encoding="utf-8"?>
<!-- Generator: Adobe Illustrator 16.0.4, SVG Export Plug-In . SVG Version: 6.00 Build 0)  -->
<!DOCTYPE svg PUBLIC "-//W3C//DTD SVG 1.1//EN" "http://www.w3.org/Graphics/SVG/1.1/DTD/svg11.dtd">
<svg version="1.1" id="Layer_1" xmlns="http://www.w3.org/2000/svg" xmlns:xlink="http://www.w3.org/1999/xlink" x="0px" y="0px"
	 width="492px" height="408.652px" viewBox="0 0 492 408.652" enable-background="new 0 0 492 408.652" xml:space="preserve">
<path fill="#FFFFFF" d="M464.344,165.744l0.77,0.168H135.888L239.384,62.188c5.068-5.064,7.849-11.924,7.849-19.124
	c0-7.2-2.78-14.012-7.849-19.088L223.28,7.864C218.216,2.8,211.468,0,204.272,0c-7.2,0-13.952,2.78-19.016,7.844L7.844,185.24
	C2.76,190.324-0.02,197.096,0,204.3c-0.02,7.243,2.76,14.02,7.844,19.096l177.412,177.412c5.064,5.06,11.812,7.844,19.016,7.844
	c7.196,0,13.944-2.788,19.008-7.844l16.104-16.112c5.068-5.056,7.849-11.808,7.849-19.008c0-7.196-2.78-13.592-7.849-18.652
	L134.72,242.732h329.992c14.828,0,27.288-12.78,27.288-27.6v-22.788C492,177.524,479.172,165.744,464.344,165.744"/>
</svg>
