<?xml version="1.0" encoding="utf-8"?>
<!-- Generator: Adobe Illustrator 16.0.4, SVG Export Plug-In . SVG Version: 6.00 Build 0)  -->
<!DOCTYPE svg PUBLIC "-//W3C//DTD SVG 1.1//EN" "http://www.w3.org/Graphics/SVG/1.1/DTD/svg11.dtd">
<svg version="1.1" id="Layer_1" xmlns="http://www.w3.org/2000/svg" xmlns:xlink="http://www.w3.org/1999/xlink" x="0px" y="0px"
	 width="475.044px" height="475.044px" viewBox="0 0 475.044 475.044" enable-background="new 0 0 475.044 475.044"
	 xml:space="preserve">
<g>
	<path fill="#394149" d="M463.783,463.783L463.783,463.783c-15.013,15.015-39.354,15.015-54.367,0L11.261,65.627
		c-15.014-15.013-15.014-39.354,0-54.367c15.013-15.014,39.354-15.014,54.367,0l398.156,398.156
		C478.798,424.43,478.798,448.771,463.783,463.783"/>
	<path fill="#394149" d="M463.783,11.26L463.783,11.26c15.015,15.013,15.015,39.354,0,54.368L65.627,463.783
		c-15.013,15.014-39.354,15.014-54.367,0c-15.014-15.012-15.014-39.354,0-54.367L409.416,11.26
		C424.43-3.753,448.771-3.753,463.783,11.26"/>
</g>
</svg>
