<?xml version="1.0" encoding="utf-8"?>
<!-- Generator: Adobe Illustrator 16.0.4, SVG Export Plug-In . SVG Version: 6.00 Build 0)  -->
<!DOCTYPE svg PUBLIC "-//W3C//DTD SVG 1.1//EN" "http://www.w3.org/Graphics/SVG/1.1/DTD/svg11.dtd">
<svg version="1.1" id="Layer_1" xmlns="http://www.w3.org/2000/svg" xmlns:xlink="http://www.w3.org/1999/xlink" x="0px" y="0px"
	 width="21.327px" height="26.987px" viewBox="0 0 21.327 26.987" enable-background="new 0 0 21.327 26.987" xml:space="preserve">
<g>
	<path fill="#FFFFFF" d="M10.663,0c-4.77,0-8.636,4.342-8.636,9.698h2.347c0-3.9,2.816-7.062,6.289-7.062
		c3.475,0,6.289,3.162,6.289,7.062h2.349C19.301,4.342,15.434,0,10.663,0"/>
	<path fill="#FFFFFF" d="M0,26.987h21.327V9.699H0V26.987z M10.663,23.969c-1.336,0-2.42-1.217-2.42-2.719
		c0-1.038,0.525-1.929,1.285-2.387v-2.762c0-0.705,0.509-1.275,1.136-1.275c0.628,0,1.137,0.57,1.137,1.275v2.762
		c0.761,0.458,1.285,1.349,1.285,2.387C13.085,22.752,12.001,23.969,10.663,23.969"/>
</g>
</svg>
