<?xml version="1.0" encoding="utf-8"?>
<!-- Generator: Adobe Illustrator 16.0.4, SVG Export Plug-In . SVG Version: 6.00 Build 0)  -->
<!DOCTYPE svg PUBLIC "-//W3C//DTD SVG 1.1//EN" "http://www.w3.org/Graphics/SVG/1.1/DTD/svg11.dtd">
<svg version="1.1" id="Layer_1" xmlns="http://www.w3.org/2000/svg" xmlns:xlink="http://www.w3.org/1999/xlink" x="0px" y="0px"
	 width="19.5px" height="23.95px" viewBox="6.25 12 19.5 23.95" enable-background="new 6.25 12 19.5 23.95" xml:space="preserve">
<g>
	<g id="Icon-Trash" transform="translate(232.000000, 228.000000)">
		<polygon id="Fill-6" fill="#898D8A" points="-219.75,-208.55 -218.25,-208.55 -218.25,-196.55 -219.75,-196.55 		"/>
		<polygon id="Fill-7" fill="#898D8A" points="-216.75,-208.55 -215.25,-208.55 -215.25,-196.55 -216.75,-196.55 		"/>
		<polygon id="Fill-8" fill="#898D8A" points="-213.75,-208.55 -212.25,-208.55 -212.25,-196.55 -213.75,-196.55 		"/>
		<polygon id="Fill-9" fill="#898D8A" points="-225.75,-213.05 -206.25,-213.05 -206.25,-211.55 -225.75,-211.55 		"/>
		<path id="Fill-10" fill="#898D8A" d="M-212.3-212.3h-1.4v-1.5c0-0.45-0.35-0.8-0.8-0.8h-3c-0.45,0-0.8,0.35-0.8,0.8v1.5h-1.4v-1.5
			c0-1.2,1-2.2,2.2-2.2h3c1.2,0,2.2,1,2.2,2.2V-212.3"/>
		<path id="Fill-11" fill="#898D8A" d="M-211.5-192.05h-9c-1.2,0-2.25-1-2.35-2.2l-1.4-18l1.5-0.1l1.4,18
			c0.05,0.449,0.45,0.8,0.85,0.8h9c0.45,0,0.85-0.4,0.85-0.8l1.4-18l1.5,0.1l-1.4,18C-209.25-193-210.3-192.05-211.5-192.05"/>
	</g>
</g>
</svg>
