<?xml version="1.0" encoding="utf-8"?>
<!-- Generator: Adobe Illustrator 16.0.4, SVG Export Plug-In . SVG Version: 6.00 Build 0)  -->
<!DOCTYPE svg PUBLIC "-//W3C//DTD SVG 1.1//EN" "http://www.w3.org/Graphics/SVG/1.1/DTD/svg11.dtd">
<svg version="1.1" id="Layer_1" xmlns="http://www.w3.org/2000/svg" xmlns:xlink="http://www.w3.org/1999/xlink" x="0px" y="0px"
	 width="416.882px" height="474.062px" viewBox="0 0 416.882 474.062" enable-background="new 0 0 416.882 474.062"
	 xml:space="preserve">
<g>
	<path fill="#FFFFFF" d="M353.142,400.48c0,25.062-20.313,45.375-45.375,45.375H109.114c-25.06,0-45.375-20.313-45.375-45.375
		V151.942c0-7.789-6.315-14.104-14.104-14.104c-7.789,0-14.103,6.315-14.103,14.104v248.543c0,40.636,32.942,73.576,73.576,73.576
		h198.66c40.64,0,73.582-32.943,73.582-73.582V151.942c0-7.789-6.313-14.104-14.104-14.104s-14.104,6.315-14.104,14.104V400.48z"/>
	<path fill="#FFFFFF" d="M132.826,401.352c7.789,0,14.103-7.792,14.103-17.396V188.047c0-9.606-6.315-17.4-14.103-17.4
		s-14.103,7.794-14.103,17.4v195.908C118.722,393.563,125.037,401.352,132.826,401.352"/>
	<path fill="#FFFFFF" d="M208.44,401.352c7.789,0,14.104-7.792,14.104-17.396V188.047c0-9.606-6.317-17.4-14.104-17.4
		c-7.788,0-14.104,7.794-14.104,17.4v195.908C194.337,393.563,200.651,401.352,208.44,401.352"/>
	<path fill="#FFFFFF" d="M284.055,401.352c7.788,0,14.104-7.792,14.104-17.396V188.047c0-9.606-6.316-17.4-14.104-17.4
		c-7.79,0-14.104,7.794-14.104,17.4v195.908C269.95,393.563,276.268,401.352,284.055,401.352"/>
	<path fill="#FFFFFF" d="M416.882,92.182L416.882,92.182c0,7.789-6.313,14.103-14.104,14.103H14.103
		C6.314,106.285,0,99.971,0,92.182c0-7.789,6.314-14.103,14.103-14.103h388.675C410.568,78.079,416.882,84.393,416.882,92.182"/>
	<path fill="#FFFFFF" d="M208.44,30.802c36.787,0,67.336,26.712,73.309,61.798c1.243,7.307,7.725,12.567,15.138,12.567
		c9.511,0,16.811-8.547,15.2-17.922C303.582,37.7,260.414,0,208.44,0c-51.973,0-95.14,37.701-103.646,87.246
		c-1.61,9.375,5.689,17.922,15.2,17.922c7.413,0,13.895-5.26,15.139-12.567C141.106,57.514,171.654,30.802,208.44,30.802"/>
</g>
</svg>
