<?xml version="1.0" encoding="utf-8"?>
<!-- Generator: Adobe Illustrator 16.0.4, SVG Export Plug-In . SVG Version: 6.00 Build 0)  -->
<!DOCTYPE svg PUBLIC "-//W3C//DTD SVG 1.1//EN" "http://www.w3.org/Graphics/SVG/1.1/DTD/svg11.dtd">
<svg version="1.1" id="Layer_1" xmlns="http://www.w3.org/2000/svg" xmlns:xlink="http://www.w3.org/1999/xlink" x="0px" y="0px"
	 width="54.998px" height="56.966px" viewBox="0 0 54.998 56.966" enable-background="new 0 0 54.998 56.966" xml:space="preserve">
<path fill="#394149" d="M54.163,51.888l-13.56-14.103C44.09,33.643,46,28.428,46,23C46,10.317,35.682,0,23,0C10.318,0,0,10.317,0,23
	c0,12.683,10.318,23,23,23c4.761,0,9.298-1.437,13.177-4.162l13.661,14.208c0.571,0.594,1.339,0.92,2.162,0.92
	c0.779,0,1.518-0.297,2.08-0.837C55.271,54.981,55.309,53.08,54.163,51.888 M23,6c9.375,0,17,7.626,17,17c0,9.375-7.625,17-17,17
	c-9.374,0-17-7.626-17-17C6,13.625,13.626,6,23,6"/>
</svg>
