<?xml version="1.0" encoding="utf-8"?>
<!-- Generator: Adobe Illustrator 16.0.4, SVG Export Plug-In . SVG Version: 6.00 Build 0)  -->
<!DOCTYPE svg PUBLIC "-//W3C//DTD SVG 1.1//EN" "http://www.w3.org/Graphics/SVG/1.1/DTD/svg11.dtd">
<svg version="1.1" id="Layer_1" xmlns="http://www.w3.org/2000/svg" xmlns:xlink="http://www.w3.org/1999/xlink" x="0px" y="0px"
	 width="1408px" height="1408px" viewBox="192 128 1408 1408" enable-background="new 192 128 1408 1408" xml:space="preserve">
<path fill="#1C2B39" d="M1472,1248V416c0-44-15.667-81.667-47-113s-69-47-113-47H480c-44,0-81.667,15.667-113,47s-47,69-47,113v832
	c0,44,15.667,81.667,47,113s69,47,113,47h832c44,0,81.667-15.667,113-47S1472,1292,1472,1248z M1600,416v832
	c0,79.333-28.167,147.167-84.5,203.5S1391.333,1536,1312,1536H480c-79.333,0-147.167-28.167-203.5-84.5S192,1327.333,192,1248V416
	c0-79.333,28.167-147.167,84.5-203.5S400.667,128,480,128h832c79.333,0,147.167,28.167,203.5,84.5S1600,336.667,1600,416z"/>
<g id="Coins">
	<path fill="none" stroke="#1C2B39" stroke-width="48" stroke-miterlimit="10" d="M626.604,458.697
		c104.248,0,188.825,35.246,188.825,78.745c0,43.498-84.577,78.836-188.825,78.836c-104.248,0-188.827-35.339-188.827-78.836
		C437.777,493.943,522.356,458.697,626.604,458.697z"/>
	<path fill="none" stroke="#1C2B39" stroke-width="48" stroke-miterlimit="10" d="M1176.016,812.986
		c105.304,0,190.688,35.742,190.688,79.86c0,44.119-85.384,79.893-190.688,79.893c-105.365,0-190.688-35.773-190.688-79.893
		C985.328,848.729,1070.65,812.986,1176.016,812.986z"/>
	
		<line fill="none" stroke="#1C2B39" stroke-width="48" stroke-miterlimit="10" x1="438.087" y1="537.442" x2="438.087" y2="1088.776"/>
	<path fill="none" stroke="#1C2B39" stroke-width="48" stroke-miterlimit="10" d="M815.429,537.442v552.42
		c0,43.654-84.577,78.744-188.825,78.744c-104.248,0-188.517-36.207-188.517-78.744"/>
	<path fill="none" stroke="#1C2B39" stroke-width="48" stroke-miterlimit="10" d="M815.429,906.002
		c0,43.685-85.322,78.775-192.115,78.775c-106.73,0-192.114-35.37-192.114-78.775"/>
	<path fill="none" stroke="#1C2B39" stroke-width="48" stroke-miterlimit="10" d="M1366.703,892.847v194.565
		c0,44.182-85.322,79.893-192.114,79.893c-106.793,0-192.115-35.711-192.115-79.893V892.847"/>
	<path fill="none" stroke="#1C2B39" stroke-width="48" stroke-miterlimit="10" d="M815.429,715.811
		c0,43.623-85.322,78.776-192.115,78.776c-106.73,0-189.601-34.005-189.601-78.776"/>
</g>
</svg>
