<?xml version="1.0" encoding="utf-8"?>
<!-- Generator: Adobe Illustrator 16.0.4, SVG Export Plug-In . SVG Version: 6.00 Build 0)  -->
<!DOCTYPE svg PUBLIC "-//W3C//DTD SVG 1.1//EN" "http://www.w3.org/Graphics/SVG/1.1/DTD/svg11.dtd">
<svg version="1.1" id="Layer_1" xmlns="http://www.w3.org/2000/svg" xmlns:xlink="http://www.w3.org/1999/xlink" x="0px" y="0px"
	 width="1408px" height="1408px" viewBox="192 128 1408 1408" enable-background="new 192 128 1408 1408" xml:space="preserve">
<path fill="#1c2b39" d="M1190.156,492.589l45.255,45.255c6.6,6.6,9.899,14.142,9.899,22.627c0,8.485-3.3,16.028-9.899,22.627l-588.312,588.312
	c-6.6,6.6-14.143,9.899-22.628,9.899c-8.484,0-16.027-3.3-22.627-9.899l-45.255-45.255c-6.6-6.6-9.899-14.143-9.899-22.627
	c0-8.485,3.3-16.028,9.899-22.628l588.312-588.312c6.6-6.6,14.143-9.899,22.628-9.899
	C1176.014,482.689,1183.557,485.989,1190.156,492.589z M556.589,537.844l45.255-45.255c6.6-6.6,14.142-9.899,22.627-9.899
	c8.485,0,16.028,3.3,22.627,9.899l588.312,588.312c6.6,6.6,9.899,14.143,9.899,22.628c0,8.484-3.3,16.027-9.899,22.627
	l-45.255,45.255c-6.6,6.6-14.143,9.899-22.627,9.899c-8.485,0-16.028-3.3-22.628-9.899L556.589,583.099
	c-6.6-6.6-9.899-14.143-9.899-22.628C546.689,551.986,549.989,544.443,556.589,537.844z M1472,1248V416c0-44-15.667-81.667-47-113
	s-69-47-113-47H480c-44,0-81.667,15.667-113,47s-47,69-47,113v832c0,44,15.667,81.667,47,113s69,47,113,47h832
	c44,0,81.667-15.667,113-47S1472,1292,1472,1248z M1600,416v832c0,79.333-28.167,147.167-84.5,203.5S1391.333,1536,1312,1536H480
	c-79.333,0-147.167-28.167-203.5-84.5c-56.333-56.333-84.5-124.167-84.5-203.5V416c0-79.333,28.167-147.167,84.5-203.5
	C332.833,156.167,400.667,128,480,128h832c79.333,0,147.167,28.167,203.5,84.5S1600,336.667,1600,416z"/>
</svg>
