<?xml version="1.0" encoding="utf-8"?>
<!-- Generator: Adobe Illustrator 16.0.4, SVG Export Plug-In . SVG Version: 6.00 Build 0)  -->
<!DOCTYPE svg PUBLIC "-//W3C//DTD SVG 1.1//EN" "http://www.w3.org/Graphics/SVG/1.1/DTD/svg11.dtd">
<svg version="1.1" id="Layer_1" xmlns="http://www.w3.org/2000/svg" xmlns:xlink="http://www.w3.org/1999/xlink" x="0px" y="0px"
	 width="1408px" height="1408px" viewBox="192 128 1408 1408" enable-background="new 192 128 1408 1408" xml:space="preserve">
<path fill="#1c2b39" d="M1472,1248V416c0-44-15.667-81.667-47-113s-69-47-113-47H480c-44,0-81.667,15.667-113,47s-47,69-47,113v832
	c0,44,15.667,81.667,47,113s69,47,113,47h832c44,0,81.667-15.667,113-47S1472,1292,1472,1248z M1600,416v832
	c0,79.333-28.167,147.167-84.5,203.5S1391.333,1536,1312,1536H480c-79.333,0-147.167-28.167-203.5-84.5
	c-56.333-56.333-84.5-124.167-84.5-203.5V416c0-79.333,28.167-147.167,84.5-203.5C332.833,156.167,400.667,128,480,128h832
	c79.333,0,147.167,28.167,203.5,84.5S1600,336.667,1600,416z"/>
<path fill="#1c2b39" d="M636.667,1206.52c15.229,13.471,40.107,10.256,55.55-7.241l540.872-611.566c15.441-17.473,15.632-42.563,0.391-56.036
	l-97.698-86.397c-15.229-13.473-40.106-10.233-55.561,7.239l-540.86,611.59c-15.442,17.484-15.632,42.54-0.392,56.012
	L636.667,1206.52z"/>
<path fill="#1c2b39" d="M633.011,436.969c74.956,0,135.729,60.771,135.729,135.729c0,74.956-60.773,135.728-135.729,135.728
	c-74.957,0-135.728-60.772-135.728-135.728C497.283,497.741,558.055,436.969,633.011,436.969z"/>
<path fill="#1c2b39" d="M1139.438,943.396c74.955,0,135.728,60.772,135.728,135.729c0,74.955-60.772,135.728-135.728,135.728
	c-74.956,0-135.729-60.772-135.729-135.728C1003.709,1004.168,1064.481,943.396,1139.438,943.396z"/>
</svg>
