<?xml version="1.0" encoding="utf-8"?>
<!-- Generator: Adobe Illustrator 16.0.4, SVG Export Plug-In . SVG Version: 6.00 Build 0)  -->
<!DOCTYPE svg PUBLIC "-//W3C//DTD SVG 1.1//EN" "http://www.w3.org/Graphics/SVG/1.1/DTD/svg11.dtd">
<svg version="1.1" id="Layer_1" xmlns:sketch="http://www.bohemiancoding.com/sketch/ns"
	 xmlns="http://www.w3.org/2000/svg" xmlns:xlink="http://www.w3.org/1999/xlink" x="0px" y="0px" width="27.17px" height="27px"
	 viewBox="3 3 27.17 27" enable-background="new 3 3 27.17 27" xml:space="preserve">
<title></title>
<desc></desc>
<g id="Page-1">
	<g id="icon-136-document-edit">
		<path id="document-edit" fill="#898D8A" d="M26.443,12.15L15.157,23.449l0,0l-2.606-2.605L23.844,9.551L26.443,12.15L26.443,12.15
			z M27.15,11.443l1.729-1.731c0.391-0.39,0.387-1.025-0.004-1.416l-1.181-1.177c-0.393-0.392-1.024-0.395-1.417-0.003l-1.727,1.728
			L27.15,11.443L27.15,11.443z M11.904,21.611l-0.64,3.112l3.135-0.618L11.904,21.611L11.904,21.611L11.904,21.611z M22,10L22,10
			l-6-7H5.003C3.896,3,3,3.898,3,5.007v22.985C3,29.102,3.891,30,4.998,30h15.004C21.105,30,22,29.102,22,28.01V18l7.58-7.58
			c0.784-0.784,0.786-2.054,0.01-2.83l-1.18-1.18c-0.779-0.779-2.037-0.783-2.83,0.01L22,10L22,10L22,10z M21,19v9.007
			C21,28.555,20.553,29,20,29H5c-0.545,0-1-0.445-1-0.996V4.996C4,4.455,4.446,4,4.996,4H15v4.994C15,10.113,15.895,11,16.998,11H21
			L11,21l-1,5l5-1L21,19L21,19L21,19z M16,4.5v4.491C16,9.548,16.451,10,16.996,10H20.7L16,4.5L16,4.5z"/>
	</g>
</g>
</svg>
