<?xml version="1.0" encoding="utf-8"?>
<!-- Generator: Adobe Illustrator 16.0.4, SVG Export Plug-In . SVG Version: 6.00 Build 0)  -->
<!DOCTYPE svg PUBLIC "-//W3C//DTD SVG 1.1//EN" "http://www.w3.org/Graphics/SVG/1.1/DTD/svg11.dtd">
<svg version="1.1" id="Layer_1" xmlns="http://www.w3.org/2000/svg" xmlns:xlink="http://www.w3.org/1999/xlink" x="0px" y="0px"
	 width="1664px" height="1536px" viewBox="64 128 1664 1536" enable-background="new 64 128 1664 1536" xml:space="preserve">
<path fill="#898D8A" d="M448,1536h896v-256H448V1536z M448,896h896V512h-160c-26.667,0-49.333-9.333-68-28s-28-41.333-28-68V256H448
	V896z M1600,960c0-17.333-6.333-32.333-19-45s-27.667-19-45-19s-32.333,6.333-45,19s-19,27.667-19,45s6.333,32.333,19,45
	s27.667,19,45,19s32.333-6.333,45-19S1600,977.333,1600,960z M1728,960v416c0,8.667-3.167,16.167-9.5,22.5s-13.833,9.5-22.5,9.5
	h-224v160c0,26.667-9.333,49.333-28,68s-41.333,28-68,28H416c-26.667,0-49.333-9.333-68-28s-28-41.333-28-68v-160H96
	c-8.667,0-16.167-3.167-22.5-9.5S64,1384.667,64,1376V960c0-52.667,18.833-97.833,56.5-135.5S203.333,768,256,768h64V224
	c0-26.667,9.333-49.333,28-68s41.333-28,68-28h672c26.667,0,56,6.667,88,20s57.333,29.333,76,48l152,152
	c18.667,18.667,34.667,44,48,76s20,61.333,20,88v256h64c52.667,0,97.833,18.833,135.5,56.5S1728,907.333,1728,960z"/>
</svg>
