<?xml version="1.0" encoding="utf-8"?>
<!-- Generator: Adobe Illustrator 16.0.4, SVG Export Plug-In . SVG Version: 6.00 Build 0)  -->
<!DOCTYPE svg PUBLIC "-//W3C//DTD SVG 1.1//EN" "http://www.w3.org/Graphics/SVG/1.1/DTD/svg11.dtd">
<svg version="1.1" id="Layer_1" xmlns="http://www.w3.org/2000/svg" xmlns:xlink="http://www.w3.org/1999/xlink" x="0px" y="0px"
	 width="1536px" height="1664px" viewBox="128 0 1536 1664" enable-background="new 128 0 1536 1664" xml:space="preserve">
<path fill="#FFFFFF" d="M1664,896c0,104-20.333,203.333-61,298s-95.333,176.333-164,245s-150.333,123.333-245,164s-194,61-298,61
	s-203.333-20.333-298-61s-176.333-95.333-245-164c-68.667-68.667-123.333-150.333-164-245s-61-194-61-298
	c0-121.333,26.833-235.667,80.5-343S337.667,355.667,435,283c28.667-21.333,60.5-29.667,95.5-25s62.833,21.333,83.5,50
	c21.333,28,29.5,59.5,24.5,94.5S617,465.667,589,487c-65.333,49.333-115.833,109.667-151.5,181S384,815.333,384,896
	c0,69.333,13.5,135.5,40.5,198.5S488,1212,534,1258s100.5,82.5,163.5,109.5S826.667,1408,896,1408s135.5-13.5,198.5-40.5
	S1212,1304,1258,1258s82.5-100.5,109.5-163.5S1408,965.333,1408,896c0-80.667-17.833-156.667-53.5-228s-86.167-131.667-151.5-181
	c-28-21.333-44.5-49.5-49.5-84.5s3.167-66.5,24.5-94.5c20.667-28.667,48.667-45.333,84-50s67,3.667,95,25
	c97.333,72.667,172.833,162.667,226.5,270S1664,774.667,1664,896z M1024,128v640c0,34.667-12.667,64.667-38,90s-55.333,38-90,38
	s-64.667-12.667-90-38s-38-55.333-38-90V128c0-34.667,12.667-64.667,38-90s55.333-38,90-38s64.667,12.667,90,38
	S1024,93.333,1024,128z"/>
</svg>
