<?xml version="1.0" encoding="utf-8"?>
<!-- Generator: Adobe Illustrator 16.0.4, SVG Export Plug-In . SVG Version: 6.00 Build 0)  -->
<!DOCTYPE svg PUBLIC "-//W3C//DTD SVG 1.1//EN" "http://www.w3.org/Graphics/SVG/1.1/DTD/svg11.dtd">
<svg version="1.1" id="Layer_1" xmlns="http://www.w3.org/2000/svg" xmlns:xlink="http://www.w3.org/1999/xlink" x="0px" y="0px"
	 width="1408px" height="1408px" viewBox="192 128 1408 1408" enable-background="new 192 128 1408 1408" xml:space="preserve">
<path fill="#1c2b39" d="M1344,800v64c0,9.333-3,17-9,23s-13.667,9-23,9H480c-9.333,0-17-3-23-9s-9-13.667-9-23v-64c0-9.333,3-17,9-23s13.667-9,23-9
	h832c9.333,0,17,3,23,9S1344,790.667,1344,800z M864,384h64c9.333,0,17,3,23,9s9,13.667,9,23v832c0,9.333-3,17-9,23s-13.667,9-23,9
	h-64c-9.333,0-17-3-23-9s-9-13.667-9-23V416c0-9.333,3-17,9-23S854.667,384,864,384z M1472,1248V416c0-44-15.667-81.667-47-113
	s-69-47-113-47H480c-44,0-81.667,15.667-113,47s-47,69-47,113v832c0,44,15.667,81.667,47,113s69,47,113,47h832
	c44,0,81.667-15.667,113-47S1472,1292,1472,1248z M1600,416v832c0,79.333-28.167,147.167-84.5,203.5S1391.333,1536,1312,1536H480
	c-79.333,0-147.167-28.167-203.5-84.5c-56.333-56.333-84.5-124.167-84.5-203.5V416c0-79.333,28.167-147.167,84.5-203.5
	C332.833,156.167,400.667,128,480,128h832c79.333,0,147.167,28.167,203.5,84.5S1600,336.667,1600,416z"/>
</svg>
