<?xml version="1.0" encoding="utf-8"?>
<!-- Generator: Adobe Illustrator 16.0.4, SVG Export Plug-In . SVG Version: 6.00 Build 0)  -->
<!DOCTYPE svg PUBLIC "-//W3C//DTD SVG 1.1//EN" "http://www.w3.org/Graphics/SVG/1.1/DTD/svg11.dtd">
<svg version="1.1" id="Layer_1" xmlns="http://www.w3.org/2000/svg" xmlns:xlink="http://www.w3.org/1999/xlink" x="0px" y="0px"
	 width="392.924px" height="439.583px" viewBox="0 0 392.924 439.583" enable-background="new 0 0 392.924 439.583"
	 xml:space="preserve">
<g>
	<path fill="#FFFFFF" d="M362.34,7.727l4.659,3.711c15.32,12.204,17.847,34.518,5.643,49.838l-290.7,364.937
		c-12.205,15.322-34.518,17.849-49.838,5.645l-4.659-3.711c-15.321-12.204-17.847-34.519-5.643-49.838l290.7-364.938
		C324.706-1.952,347.021-4.478,362.34,7.727"/>
	<path fill="#FFFFFF" d="M60,166.331L60,166.331c-33.137,0-60-26.863-60-60c0-33.137,26.863-60,60-60c33.137,0,60,26.863,60,60
		C120,139.468,93.137,166.331,60,166.331"/>
	<path fill="#FFFFFF" d="M332.924,273.252L332.924,273.252c33.138,0,60,26.863,60,60c0,33.138-26.862,60-60,60s-60-26.862-60-60
		C272.924,300.115,299.786,273.252,332.924,273.252"/>
</g>
</svg>
