<?xml version="1.0" encoding="utf-8"?>
<!-- Generator: Adobe Illustrator 16.0.4, SVG Export Plug-In . SVG Version: 6.00 Build 0)  -->
<!DOCTYPE svg PUBLIC "-//W3C//DTD SVG 1.1//EN" "http://www.w3.org/Graphics/SVG/1.1/DTD/svg11.dtd">
<svg version="1.1" id="Layer_1" xmlns="http://www.w3.org/2000/svg" xmlns:xlink="http://www.w3.org/1999/xlink" x="0px" y="0px"
	 width="639.965px" height="639.965px" viewBox="0 0 639.965 639.965" enable-background="new 0 0 639.965 639.965"
	 xml:space="preserve">
<g>
	<path fill="#FFFFFF" d="M639.965,319.982L639.965,319.982c0,21.232-17.212,38.444-38.443,38.444H38.444
		C17.212,358.426,0,341.214,0,319.982s17.212-38.444,38.444-38.444h563.078C622.753,281.538,639.965,298.75,639.965,319.982"/>
	<path fill="#FFFFFF" d="M319.982,0L319.982,0c21.232,0,38.444,17.212,38.444,38.444v563.077c0,21.232-17.212,38.444-38.444,38.444
		c-21.232,0-38.444-17.212-38.444-38.444V38.443C281.539,17.211,298.75,0,319.982,0"/>
</g>
</svg>
